<?xml version="1.0" encoding="UTF-8" standalone="no"?><!-- Generator: Gravit.io --><svg xmlns="http://www.w3.org/2000/svg" xmlns:xlink="http://www.w3.org/1999/xlink" style="isolation:isolate" viewBox="0 0 1200 1200" width="1200pt" height="1200pt"><defs><clipPath id="_clipPath_BXwlbRlHRkO40A9eEQ02aJUnQ97LEntW"><rect width="1200" height="1200"/></clipPath></defs><g clip-path="url(#_clipPath_BXwlbRlHRkO40A9eEQ02aJUnQ97LEntW)"><line x1="703" y1="365" x2="404" y2="509" vector-effect="non-scaling-stroke" stroke-width="3" stroke="rgb(0,0,0)" stroke-linejoin="round" stroke-linecap="round" stroke-miterlimit="3"/><g><g><path d=" M 547.617 694.667 L 437.895 702.303 L 437.895 551.008 L 545.427 543.508 L 545.427 567.183 L 468.302 572.547 L 468.302 612.451 L 539.926 607.47 L 539.926 631.363 L 468.302 636.344 L 468.302 676.248 L 547.617 670.719 L 547.617 694.667 L 547.617 694.667 Z " fill="rgb(0,0,0)"/><path d=" M 680.274 578.65 L 649.21 580.812 C 647.431 565.595 638.837 556.536 622.991 557.658 C 610.866 558.507 601.616 564.856 601.616 577.117 C 601.616 589.379 609.772 595.619 633.993 599.642 C 667.492 604.979 682.463 619.293 682.463 643.624 C 682.463 672.115 656.244 690.178 626.275 692.258 C 589.929 694.776 566.118 680.435 563.272 648.851 L 594.335 646.689 C 597.647 663.11 610.428 670.774 625.837 669.706 C 639.713 668.748 650.743 660.51 650.743 648.906 C 650.743 636.179 642.806 629.283 620.336 625.588 C 589.272 620.306 569.649 610.918 569.649 583.057 C 569.649 555.195 594.992 536.995 624.085 534.969 C 660.431 532.451 676.962 551.911 680.274 578.65 L 680.274 578.65 Z " fill="rgb(0,0,0)"/><path d=" M 817.337 675.892 L 707.615 683.528 L 707.615 532.233 L 815.148 524.761 L 815.148 548.435 L 738.022 553.799 L 738.022 593.703 L 809.619 588.722 L 809.619 612.615 L 738.022 617.596 L 738.022 657.5 L 817.337 651.971 L 817.337 675.864 L 817.337 675.864 L 817.337 675.892 Z " fill="rgb(0,0,0)"/></g><path d=" M 998.519 474.347 L 998.519 701.317 L 930.918 706.025 L 930.918 746.996 L 867.805 710.404 L 401.768 742.836 L 401.768 515.893 L 998.519 474.347 Z  M 1009.521 462.579 L 997.78 463.4 L 401.002 504.918 L 390.766 505.63 L 390.766 754.605 L 402.507 753.784 L 865.205 721.598 L 925.389 756.493 L 941.893 766.072 L 941.893 716.261 L 999.285 712.265 L 1009.521 711.553 L 1009.521 462.579 L 1009.521 462.579 Z " fill="rgb(0,0,0)"/><g clip-path="url(#_clipPath_PO1ADpkp4tBAhakDERwqLTq2x3gd5j9Y)"><text transform="matrix(3.754,-0.261,0,3.736,821.57,617.624)" style="font-family:'Aileron Thin';font-weight:400;font-size:36px;font-style:normal;fill:#000000;stroke:none;">24</text></g><defs><clipPath id="_clipPath_PO1ADpkp4tBAhakDERwqLTq2x3gd5j9Y"><rect x="0" y="0" width="65.506" height="75.568" transform="matrix(3.754,-0.261,0,3.736,821.57,487.179)"/></clipPath></defs></g><path d=" M 203 1085 L 203 372 L 246 372 L 244 1089 L 203 1041 L 244 1041 L 203 1041 L 244 995 L 203 995 L 244 995 L 203 946 L 244 946 L 203 946 L 244 897 L 203 897 L 244 897 L 203 850 L 244 850 L 203 850 L 246 801 L 203 801 L 246 801 L 203 753 L 244 753 L 203 753 L 246 705 L 203 705 L 246 705 L 203 659 L 246 659 L 203 659 L 246 610 L 203 610 L 246 610 L 203 561 L 246 561 L 203 561 L 246 513 L 203 513 L 246 513 L 203 466 L 246 466 L 203 466 L 246 418 L 203 418 L 246 418 L 203 372" fill="none" vector-effect="non-scaling-stroke" stroke-width="10" stroke="rgb(255,221,0)" stroke-linejoin="round" stroke-linecap="round" stroke-miterlimit="3"/><rect x="144" y="1085" width="156.656" height="20.681" transform="matrix(1,0,0,1,0,0)" fill="rgb(162,162,162)"/><path d=" M 191 280 L 707 281 L 707 264 L 188 264 L 225 281 L 225 264 L 225 280 L 256 264 L 256 280 L 256 264 L 288 281 L 288 264 L 288 280 L 321 264 L 321 281 L 321 264 L 352 281 L 352 264 L 352 280 L 384 264 L 384 281 L 384 264 L 416 281 L 416 264 L 416 281 L 449 264 L 449 281 L 449 264 L 480 281 L 480 264 L 480 281 L 512 264 L 512 281 L 512 264 L 544 281 L 544 264 L 544 280 L 575 264 L 575 281 L 575 264 L 609 281 L 609 264 L 609 280 L 640 264 L 640 281 L 640 264 L 672 281 L 672 264 L 672 281 L 707 264" fill="none" vector-effect="non-scaling-stroke" stroke-width="2" stroke="rgb(0,0,0)" stroke-linejoin="round" stroke-linecap="round" stroke-miterlimit="3"/><path d="M 703.601 260.32 L 706.399 260.32 C 707.283 260.32 708 261.037 708 261.921 L 708 287.399 C 708 288.283 707.283 289 706.399 289 L 703.601 289 C 702.717 289 702 288.283 702 287.399 L 702 261.921 C 702 261.037 702.717 260.32 703.601 260.32 Z" style="stroke:none;fill:#FFDD00;stroke-miterlimit:10;"/><path d="M 699.704 317.55 L 708.916 317.55 C 709.856 317.55 710.62 318.314 710.62 319.254 L 710.62 331.296 C 710.62 332.236 709.856 333 708.916 333 L 699.704 333 C 698.764 333 698 332.236 698 331.296 L 698 319.254 C 698 318.314 698.764 317.55 699.704 317.55 Z" style="stroke:none;fill:#FFDD00;stroke-miterlimit:10;"/><path d=" M 702.44 345 L 702.44 349.22 Q 712.413 352.648 710.88 359.77 C 710.038 363.684 706.427 366.165 702.44 366.1 Q 695.895 365.993 694 356.224 Q 694.145 367.962 702.44 368.21 C 707.491 369.056 713.069 365.118 712.99 359.77 Q 713.288 351.335 704.55 349.22 L 704.55 345 L 702.44 345 Z " fill="rgb(116,116,116)" vector-effect="non-scaling-stroke" stroke-width="1" stroke="rgb(116,116,116)" stroke-linejoin="miter" stroke-linecap="square" stroke-miterlimit="3"/><path d="M 697.891 330 L 710.109 330 C 711.153 330 712 330.847 712 331.891 L 712 343.109 C 712 344.153 711.153 345 710.109 345 L 697.891 345 C 696.847 345 696 344.153 696 343.109 L 696 331.891 C 696 330.847 696.847 330 697.891 330 Z" style="stroke:none;fill:#FFDD00;stroke-miterlimit:10;"/><path d="M 703 258.34 L 707 258.34 C 708.104 258.34 709 259.236 709 260.34 L 709 260.34 C 709 261.444 708.104 262.34 707 262.34 L 703 262.34 C 701.896 262.34 701 261.444 701 260.34 L 701 260.34 C 701 259.236 701.896 258.34 703 258.34 Z" style="stroke:none;fill:#FFDD00;stroke-miterlimit:10;"/><path d="M 703 287 L 707 287 C 708.104 287 709 287.896 709 289 L 709 289 C 709 290.104 708.104 291 707 291 L 703 291 C 701.896 291 701 290.104 701 289 L 701 289 C 701 287.896 701.896 287 703 287 Z" style="stroke:none;fill:#FFDD00;stroke-miterlimit:10;"/><line x1="703" y1="364" x2="1001" y2="466" vector-effect="non-scaling-stroke" stroke-width="3" stroke="rgb(0,0,0)" stroke-linejoin="round" stroke-linecap="round" stroke-miterlimit="3"/><path d=" M 203 355 L 203 277 L 246 276 L 246 355 L 246 365 L 203 320 L 246 320 L 203 277" fill="none" vector-effect="non-scaling-stroke" stroke-width="10" stroke="rgb(255,221,0)" stroke-linejoin="round" stroke-linecap="round" stroke-miterlimit="3"/><path d="M 207.865 355.32 L 241.135 355.32 C 243.82 355.32 246 357.5 246 360.185 L 246 367.135 C 246 369.82 243.82 372 241.135 372 L 207.865 372 C 205.18 372 203 369.82 203 367.135 L 203 360.185 C 203 357.5 205.18 355.32 207.865 355.32 Z" style="stroke:none;fill:#A2A2A2;stroke-miterlimit:10;"/><g><path d=" M 150 353 L 150 332 L 185.306 332 L 287 332 L 287 355.319" fill="none" vector-effect="non-scaling-stroke" stroke-width="3" stroke="rgb(0,0,0)" stroke-linejoin="round" stroke-linecap="round" stroke-miterlimit="3"/><line x1="185.306" y1="355.319" x2="185.306" y2="332" vector-effect="non-scaling-stroke" stroke-width="3" stroke="rgb(0,0,0)" stroke-linejoin="round" stroke-linecap="round" stroke-miterlimit="3"/><line x1="219" y1="355.319" x2="219" y2="332" vector-effect="non-scaling-stroke" stroke-width="3" stroke="rgb(0,0,0)" stroke-linejoin="round" stroke-linecap="round" stroke-miterlimit="3"/><line x1="254" y1="355.319" x2="254" y2="332" vector-effect="non-scaling-stroke" stroke-width="3" stroke="rgb(0,0,0)" stroke-linejoin="round" stroke-linecap="round" stroke-miterlimit="3"/></g><path d="M 145.668 351.23 L 292.332 351.23 C 293.253 351.23 294 351.977 294 352.897 L 294 360.173 C 294 361.093 293.253 361.84 292.332 361.84 L 145.668 361.84 C 144.747 361.84 144 361.093 144 360.173 L 144 352.897 C 144 351.977 144.747 351.23 145.668 351.23 Z" style="stroke:none;fill:#FFDD00;stroke-miterlimit:10;"/><path d=" M 144 99 L 144 222 L 144 272" fill="rgb(255,255,255)" vector-effect="non-scaling-stroke" stroke-width="10" stroke="rgb(255,200,0)" stroke-linejoin="round" stroke-linecap="round" stroke-miterlimit="3"/><path d=" M 51 266.681 L 144 99 L 704.55 264" fill="none" vector-effect="non-scaling-stroke" stroke-width="10" stroke="rgb(255,221,0)" stroke-linejoin="round" stroke-linecap="round" stroke-miterlimit="3"/><path d="M 44.08 250 L 244.92 250 C 251.035 250 256 253.737 256 258.34 L 256 258.34 C 256 262.943 251.035 266.68 244.92 266.68 L 44.08 266.68 C 37.965 266.68 33 262.943 33 258.34 L 33 258.34 C 33 253.737 37.965 250 44.08 250 Z" style="stroke:none;fill:#A2A2A2;stroke-miterlimit:10;"/><path d="M 21.289 260.32 L 263.711 260.32 C 265.526 260.32 267 261.794 267 263.61 L 267 281.9 C 267 283.716 265.526 285.19 263.711 285.19 L 21.289 285.19 C 19.474 285.19 18 283.716 18 281.9 L 18 263.61 C 18 261.794 19.474 260.32 21.289 260.32 Z" style="stroke:none;fill:#FFDD00;stroke-miterlimit:10;"/><g><path d=" M 471.345 1108.8 L 442.08 1106.488 L 442.08 1106.488 L 384.595 1101.946 L 425.428 1000.883 L 469.771 1037.949 L 442.08 1106.488 L 442.08 1106.488 L 469.771 1037.949 L 453.646 1024.47 L 453.646 1024.47 L 469.771 1037.949 L 492.346 1056.819 L 508.471 1070.298 L 527.821 1086.472 Q 541.65 1097.625 538.339 1105.821 Q 535.027 1114.017 517.332 1112.433 L 492.248 1110.451 L 471.345 1108.8 Z  M 492.517 1109.785 L 492.248 1110.451 L 508.471 1070.298 L 508.471 1070.298 L 492.517 1109.785 Z " fill-rule="evenodd" fill="rgb(255,241,198)"/><path d=" M 471.345 1108.8 L 442.08 1106.488 L 421.176 1104.836 L 384.595 1101.946 L 425.428 1000.883 L 453.646 1024.47 L 421.176 1104.836 L 442.08 1106.488 L 469.771 1037.949 L 453.646 1024.47 L 453.646 1024.47 L 469.771 1037.949 L 492.346 1056.819 L 508.471 1070.298 L 527.821 1086.472 Q 541.65 1097.625 538.339 1105.821 Q 535.027 1114.017 517.332 1112.433 L 492.248 1110.451 L 471.345 1108.8 Z  M 471.345 1108.8 L 492.248 1110.451 L 508.471 1070.298 L 492.346 1056.819 L 471.345 1108.8 Z " fill-rule="evenodd" fill="rgb(255,153,0)"/><path d="M 440.205 999.018 L 393.924 1113.552 C 391.531 1119.473 384.78 1122.338 378.858 1119.946 L 376.209 1118.875 C 370.287 1116.483 367.422 1109.734 369.815 1103.812 L 416.096 989.278 C 418.489 983.357 425.24 980.492 431.162 982.884 L 433.811 983.955 C 439.733 986.347 442.598 993.096 440.205 999.018 Z" style="stroke:none;fill:#DD8604;stroke-miterlimit:10;"/></g><g><path d=" M 974.018 1015 L 982.837 1043 L 982.837 1043 L 1000.16 1098 L 891.16 1098 L 908.916 1043 L 982.837 1043 L 982.837 1043 L 908.916 1043 L 902.459 1063 L 902.459 1063 L 908.916 1043 L 917.956 1015 L 924.412 995 L 932.16 971 Q 937.32 954 946.16 954 Q 955 954 960.16 971 L 967.719 995 L 974.018 1015 Z  M 967 995 L 967.719 995 L 924.412 995 L 924.412 995 L 967 995 Z " fill-rule="evenodd" fill="rgb(255,241,198)"/><path d=" M 974.018 1015 L 982.837 1043 L 989.137 1063 L 1000.16 1098 L 891.16 1098 L 902.459 1063 L 989.137 1063 L 982.837 1043 L 908.916 1043 L 902.459 1063 L 902.459 1063 L 908.916 1043 L 917.956 1015 L 924.412 995 L 932.16 971 Q 937.32 954 946.16 954 Q 955 954 960.16 971 L 967.719 995 L 974.018 1015 Z  M 974.018 1015 L 967.719 995 L 924.412 995 L 917.956 1015 L 974.018 1015 Z " fill-rule="evenodd" fill="rgb(255,153,0)"/><path d="M 883.892 1085 L 1007.428 1085 C 1013.815 1085 1019 1090.185 1019 1096.572 L 1019 1099.428 C 1019 1105.815 1013.815 1111 1007.428 1111 L 883.892 1111 C 877.505 1111 872.32 1105.815 872.32 1099.428 L 872.32 1096.572 C 872.32 1090.185 877.505 1085 883.892 1085 Z" style="stroke:none;fill:#DD8604;stroke-miterlimit:10;"/></g></g></svg>